<svg width="171" height="170" viewBox="0 0 171 170" fill="none" xmlns="http://www.w3.org/2000/svg">
<path d="M127.8 8.49998C139.7 15.3 149 26.5 156.5 39C164 51.5 169.7 65.3 170.4 79.4C171.1 93.5 166.8 108.1 160 121.7C153.1 135.3 143.7 148.1 131.1 157.1C118.5 166.2 102.7 171.6 88.6 168.8C74.5 166 62 155 49.4 145.9C36.8 136.8 24.2 129.7 15.5 118.9C6.80002 108.1 2.10001 93.5 0.700013 78.2C-0.699987 62.8 1.10002 46.6 9.40002 35.2C17.8 23.8 32.6 17.1 46.6 11.6C60.6 5.99998 73.8 1.59998 87.6 0.599981C101.4 -0.500019 115.8 1.79998 127.8 8.49998Z" fill="#EEFCF8"/>
</svg>
