<svg class="animated" id="freepik_stories-houses" xmlns="http://www.w3.org/2000/svg" viewBox="0 0 500 390" version="1.1" xmlns:xlink="http://www.w3.org/1999/xlink" xmlns:svgjs="http://svgjs.com/svgjs"><style>svg#freepik_stories-houses:not(.animated) .animable {opacity: 0;}svg#freepik_stories-houses.animated #freepik--house-2--inject-105 {animation: 8s Infinite  linear shake;animation-delay: 0s;}svg#freepik_stories-houses.animated #freepik--house-1--inject-105 {animation: 8s Infinite  linear shake;animation-delay: 0s;}svg#freepik_stories-houses.animated #freepik--Trees--inject-105 {animation: 8s Infinite  linear shake;animation-delay: 0s;}            @keyframes shake {                10%, 90% {                    transform: translate3d(-1px, 0, 0);                  }                  20%, 80% {                    transform: translate3d(2px, 0, 0);                  }                  30%, 50%, 70% {                    transform: translate3d(-4px, 0, 0);                  }                  40%, 60% {                    transform: translate3d(4px, 0, 0);                  }            }        </style><g id="freepik--Mountains--inject-105" class="animable" style="transform-origin: 246.175px 256.72px;"><polygon points="446 387.44 318.7 126 271 212.56 210.09 172.7 157.24 230.2 132.13 205.97 61.45 366.03 46.35 387.44 446 387.44" style="fill: rgb(133, 202, 255); transform-origin: 246.175px 256.72px;" id="el5zwu1rk9ja9" class="animable"></polygon><g id="elx803o9ovbo"><polygon points="446 387.44 318.7 126 271 212.56 210.09 172.7 157.24 230.2 132.13 205.97 61.45 366.03 46.35 387.44 446 387.44" style="fill: rgb(255, 255, 255); opacity: 0.5; transform-origin: 246.175px 256.72px;" class="animable"></polygon></g><line x1="312.83" y1="242.67" x2="315.91" y2="245.03" style="fill: none; stroke: rgb(255, 255, 255); stroke-linecap: round; stroke-linejoin: round; transform-origin: 314.37px 243.85px;" id="eltcrcb986tng" class="animable"></line><line x1="274.95" y1="213.74" x2="308.5" y2="239.36" style="fill: none; stroke: rgb(255, 255, 255); stroke-linecap: round; stroke-linejoin: round; transform-origin: 291.725px 226.55px;" id="el5rnmjxvco2" class="animable"></line><line x1="152.64" y1="237.63" x2="129.32" y2="263.23" style="fill: none; stroke: rgb(255, 255, 255); stroke-linecap: round; stroke-linejoin: round; transform-origin: 140.98px 250.43px;" id="el4a0u22az3zd" class="animable"></line><polygon points="328.79 185.52 328.79 158.47 332.09 159.79 332.36 154.05 318.7 126 301.42 157.37 310.98 149.24 312.96 158.47 318.24 154.52 328.79 185.52" style="fill: rgb(255, 255, 255); transform-origin: 316.89px 155.76px;" id="elw23zia3l33k" class="animable"></polygon><polygon points="226.48 194.21 228.38 184.67 210.09 172.7 195.97 188.07 206.5 183.97 213.16 194.21 213.67 186.53 226.48 194.21" style="fill: rgb(255, 255, 255); transform-origin: 212.175px 183.455px;" id="elirzkekdp0n" class="animable"></polygon></g><g id="freepik--house-2--inject-105" class="animable" style="transform-origin: 341.006px 319.611px;"><rect x="259.95" y="271.67" width="167.37" height="115.33" style="fill: rgb(133, 202, 255); stroke: rgb(38, 50, 56); stroke-linecap: round; stroke-linejoin: round; transform-origin: 343.635px 329.335px;" id="el34j2rxk10kc" class="animable"></rect><rect x="338.47" y="331" width="23.35" height="56" style="fill: rgb(255, 255, 255); stroke: rgb(38, 50, 56); stroke-linecap: round; stroke-linejoin: round; transform-origin: 350.145px 359px;" id="elh6c6faz7ckh" class="animable"></rect><rect x="340.97" y="335" width="18.35" height="52" style="fill: rgb(38, 50, 56); stroke: rgb(38, 50, 56); stroke-linecap: round; stroke-linejoin: round; transform-origin: 350.145px 361px;" id="elnm1iafgwjy" class="animable"></rect><rect x="370.99" y="323.43" width="4.96" height="63.57" style="fill: rgb(255, 255, 255); stroke: rgb(38, 50, 56); stroke-linecap: round; stroke-linejoin: round; transform-origin: 373.47px 355.215px;" id="elz43tlwi108m" class="animable"></rect><rect x="370.12" y="364.68" width="6.7" height="22.32" style="fill: rgb(255, 255, 255); stroke: rgb(38, 50, 56); stroke-linecap: round; stroke-linejoin: round; transform-origin: 373.47px 375.84px;" id="elpg46hv73oq" class="animable"></rect><path d="M432.44,273.16H276.92a.26.26,0,0,1-.1-.5l43.43-18.81a6.24,6.24,0,0,1,2.49-.52h59.94a6.18,6.18,0,0,1,2.32.45l47.54,18.87A.26.26,0,0,1,432.44,273.16Z" style="fill: rgb(38, 50, 56); stroke: rgb(38, 50, 56); stroke-linecap: round; stroke-linejoin: round; transform-origin: 354.701px 263.247px;" id="elgrxomvbrmsn" class="animable"></path><polygon points="381.65 328.33 292.32 328.33 299 309 369.82 309 381.65 328.33" style="fill: rgb(38, 50, 56); stroke: rgb(38, 50, 56); stroke-linecap: round; stroke-linejoin: round; transform-origin: 336.985px 318.665px;" id="elmzujd4en06r" class="animable"></polygon><rect x="254.06" y="271.67" width="76.51" height="115.33" style="fill: rgb(255, 255, 255); stroke: rgb(38, 50, 56); stroke-linecap: round; stroke-linejoin: round; transform-origin: 292.315px 329.335px;" id="elromh08et5y" class="animable"></rect><rect x="254.06" y="367" width="76.51" height="20" style="fill: rgb(133, 202, 255); stroke: rgb(38, 50, 56); stroke-linecap: round; stroke-linejoin: round; transform-origin: 292.315px 377px;" id="elbt8wfqhpib" class="animable"></rect><path d="M291.2,252.47l-41.77,19a.26.26,0,0,0,.11.5H335.1a.26.26,0,0,0,.11-.5l-41.77-19A2.66,2.66,0,0,0,291.2,252.47Z" style="fill: rgb(38, 50, 56); stroke: rgb(38, 50, 56); stroke-linecap: round; stroke-linejoin: round; transform-origin: 292.32px 262.096px;" id="els7a552m24ik" class="animable"></path><circle cx="350.14" cy="343.5" r="2" style="fill: rgb(255, 255, 255); transform-origin: 350.14px 343.5px;" id="el3efxa2zeoom" class="animable"></circle><rect x="385.32" y="336" width="37" height="31" style="fill: rgb(255, 255, 255); stroke: rgb(38, 50, 56); stroke-linecap: round; stroke-linejoin: round; transform-origin: 403.82px 351.5px;" id="el15858b274zc" class="animable"></rect><rect x="399.32" y="338.82" width="9" height="6.68" style="fill: rgb(38, 50, 56); stroke: rgb(38, 50, 56); stroke-linecap: round; stroke-linejoin: round; transform-origin: 403.82px 342.16px;" id="eluc7uok7doze" class="animable"></rect><rect x="399.32" y="348.5" width="9" height="15.68" style="fill: rgb(38, 50, 56); stroke: rgb(38, 50, 56); stroke-linecap: round; stroke-linejoin: round; transform-origin: 403.82px 356.34px;" id="ellsb2hyfii1h" class="animable"></rect><rect x="388.68" y="338.82" width="8.14" height="6.68" style="fill: rgb(38, 50, 56); stroke: rgb(38, 50, 56); stroke-linecap: round; stroke-linejoin: round; transform-origin: 392.75px 342.16px;" id="eldwsn9iz48r" class="animable"></rect><rect x="410.82" y="338.82" width="8.14" height="6.68" style="fill: rgb(38, 50, 56); stroke: rgb(38, 50, 56); stroke-linecap: round; stroke-linejoin: round; transform-origin: 414.89px 342.16px;" id="elh9gqwyhrz0w" class="animable"></rect><rect x="410.82" y="348.5" width="8.14" height="15.68" style="fill: rgb(38, 50, 56); stroke: rgb(38, 50, 56); stroke-linecap: round; stroke-linejoin: round; transform-origin: 414.89px 356.34px;" id="elryun47n27t" class="animable"></rect><rect x="388.68" y="348.5" width="8.14" height="15.68" style="fill: rgb(38, 50, 56); stroke: rgb(38, 50, 56); stroke-linecap: round; stroke-linejoin: round; transform-origin: 392.75px 356.34px;" id="elt8vcwh1mga" class="animable"></rect><rect x="268.82" y="336" width="47" height="31" style="fill: rgb(255, 255, 255); stroke: rgb(38, 50, 56); stroke-linecap: round; stroke-linejoin: round; transform-origin: 292.32px 351.5px;" id="ell2nzhiipz6" class="animable"></rect><rect x="282.82" y="338.82" width="9" height="6.68" style="fill: rgb(38, 50, 56); stroke: rgb(38, 50, 56); stroke-linecap: round; stroke-linejoin: round; transform-origin: 287.32px 342.16px;" id="eltk9ss73ith9" class="animable"></rect><rect x="282.82" y="348.5" width="9" height="15.68" style="fill: rgb(38, 50, 56); stroke: rgb(38, 50, 56); stroke-linecap: round; stroke-linejoin: round; transform-origin: 287.32px 356.34px;" id="eltwmx2crj1mq" class="animable"></rect><rect x="272.18" y="338.82" width="8.14" height="6.68" style="fill: rgb(38, 50, 56); stroke: rgb(38, 50, 56); stroke-linecap: round; stroke-linejoin: round; transform-origin: 276.25px 342.16px;" id="elap8u6kk6hq" class="animable"></rect><rect x="294.32" y="338.82" width="8.14" height="6.68" style="fill: rgb(38, 50, 56); stroke: rgb(38, 50, 56); stroke-linecap: round; stroke-linejoin: round; transform-origin: 298.39px 342.16px;" id="el7usswwiexc4" class="animable"></rect><rect x="294.32" y="348.5" width="8.14" height="15.68" style="fill: rgb(38, 50, 56); stroke: rgb(38, 50, 56); stroke-linecap: round; stroke-linejoin: round; transform-origin: 298.39px 356.34px;" id="elzlzj805p9kc" class="animable"></rect><rect x="304.82" y="338.82" width="8.14" height="6.68" style="fill: rgb(38, 50, 56); stroke: rgb(38, 50, 56); stroke-linecap: round; stroke-linejoin: round; transform-origin: 308.89px 342.16px;" id="el5g0f3m52txb" class="animable"></rect><rect x="304.82" y="348.5" width="8.14" height="15.68" style="fill: rgb(38, 50, 56); stroke: rgb(38, 50, 56); stroke-linecap: round; stroke-linejoin: round; transform-origin: 308.89px 356.34px;" id="elo9l9g0z1mx" class="animable"></rect><rect x="272.18" y="348.5" width="8.14" height="15.68" style="fill: rgb(38, 50, 56); stroke: rgb(38, 50, 56); stroke-linecap: round; stroke-linejoin: round; transform-origin: 276.25px 356.34px;" id="elfcnj0cuxhz" class="animable"></rect><rect x="268.82" y="276.5" width="47" height="31" style="fill: rgb(255, 255, 255); stroke: rgb(38, 50, 56); stroke-linecap: round; stroke-linejoin: round; transform-origin: 292.32px 292px;" id="elfcnfcyoglle" class="animable"></rect><rect x="282.82" y="279.32" width="9" height="6.68" style="fill: rgb(38, 50, 56); stroke: rgb(38, 50, 56); stroke-linecap: round; stroke-linejoin: round; transform-origin: 287.32px 282.66px;" id="elaqj09b3onxg" class="animable"></rect><rect x="282.82" y="289" width="9" height="15.68" style="fill: rgb(38, 50, 56); stroke: rgb(38, 50, 56); stroke-linecap: round; stroke-linejoin: round; transform-origin: 287.32px 296.84px;" id="el4pmucz0tkcb" class="animable"></rect><rect x="272.18" y="279.32" width="8.14" height="6.68" style="fill: rgb(38, 50, 56); stroke: rgb(38, 50, 56); stroke-linecap: round; stroke-linejoin: round; transform-origin: 276.25px 282.66px;" id="elgnhdi35j2wg" class="animable"></rect><rect x="294.32" y="279.32" width="8.14" height="6.68" style="fill: rgb(38, 50, 56); stroke: rgb(38, 50, 56); stroke-linecap: round; stroke-linejoin: round; transform-origin: 298.39px 282.66px;" id="elib6nx013fbi" class="animable"></rect><rect x="294.32" y="289" width="8.14" height="15.68" style="fill: rgb(38, 50, 56); stroke: rgb(38, 50, 56); stroke-linecap: round; stroke-linejoin: round; transform-origin: 298.39px 296.84px;" id="elw94yhbpsfpp" class="animable"></rect><rect x="304.82" y="279.32" width="8.14" height="6.68" style="fill: rgb(38, 50, 56); stroke: rgb(38, 50, 56); stroke-linecap: round; stroke-linejoin: round; transform-origin: 308.89px 282.66px;" id="elrz18xqtav6j" class="animable"></rect><rect x="304.82" y="289" width="8.14" height="15.68" style="fill: rgb(38, 50, 56); stroke: rgb(38, 50, 56); stroke-linecap: round; stroke-linejoin: round; transform-origin: 308.89px 296.84px;" id="eldpzuqmh5u7u" class="animable"></rect><rect x="272.18" y="289" width="8.14" height="15.68" style="fill: rgb(38, 50, 56); stroke: rgb(38, 50, 56); stroke-linecap: round; stroke-linejoin: round; transform-origin: 276.25px 296.84px;" id="el9tfr7g7xwt" class="animable"></rect><rect x="385.32" y="276.5" width="37" height="31" style="fill: rgb(255, 255, 255); stroke: rgb(38, 50, 56); stroke-linecap: round; stroke-linejoin: round; transform-origin: 403.82px 292px;" id="elku9bm21qz6n" class="animable"></rect><rect x="399.32" y="279.32" width="9" height="6.68" style="fill: rgb(38, 50, 56); stroke: rgb(38, 50, 56); stroke-linecap: round; stroke-linejoin: round; transform-origin: 403.82px 282.66px;" id="elaozb9e4b0a6" class="animable"></rect><rect x="399.32" y="289" width="9" height="15.68" style="fill: rgb(38, 50, 56); stroke: rgb(38, 50, 56); stroke-linecap: round; stroke-linejoin: round; transform-origin: 403.82px 296.84px;" id="el0wkzefpmdpcc" class="animable"></rect><rect x="388.68" y="279.32" width="8.14" height="6.68" style="fill: rgb(38, 50, 56); stroke: rgb(38, 50, 56); stroke-linecap: round; stroke-linejoin: round; transform-origin: 392.75px 282.66px;" id="el0n0vptgexsmj" class="animable"></rect><rect x="410.82" y="279.32" width="8.14" height="6.68" style="fill: rgb(38, 50, 56); stroke: rgb(38, 50, 56); stroke-linecap: round; stroke-linejoin: round; transform-origin: 414.89px 282.66px;" id="elpm3ge82khk" class="animable"></rect><rect x="410.82" y="289" width="8.14" height="15.68" style="fill: rgb(38, 50, 56); stroke: rgb(38, 50, 56); stroke-linecap: round; stroke-linejoin: round; transform-origin: 414.89px 296.84px;" id="el36bw1qdqm2k" class="animable"></rect><rect x="388.68" y="289" width="8.14" height="15.68" style="fill: rgb(38, 50, 56); stroke: rgb(38, 50, 56); stroke-linecap: round; stroke-linejoin: round; transform-origin: 392.75px 296.84px;" id="elf5zvuvwarwt" class="animable"></rect><rect x="337.82" y="276.5" width="26" height="31" style="fill: rgb(255, 255, 255); stroke: rgb(38, 50, 56); stroke-linecap: round; stroke-linejoin: round; transform-origin: 350.82px 292px;" id="eligfqfb6wpnq" class="animable"></rect><rect x="351.82" y="279.32" width="9" height="6.68" style="fill: rgb(38, 50, 56); stroke: rgb(38, 50, 56); stroke-linecap: round; stroke-linejoin: round; transform-origin: 356.32px 282.66px;" id="el0s4naw4m5cr9" class="animable"></rect><rect x="351.82" y="289" width="9" height="15.68" style="fill: rgb(38, 50, 56); stroke: rgb(38, 50, 56); stroke-linecap: round; stroke-linejoin: round; transform-origin: 356.32px 296.84px;" id="el4kri64gthip" class="animable"></rect><rect x="341.18" y="279.32" width="8.14" height="6.68" style="fill: rgb(38, 50, 56); stroke: rgb(38, 50, 56); stroke-linecap: round; stroke-linejoin: round; transform-origin: 345.25px 282.66px;" id="el42s9lskgq4y" class="animable"></rect><rect x="341.18" y="289" width="8.14" height="15.68" style="fill: rgb(38, 50, 56); stroke: rgb(38, 50, 56); stroke-linecap: round; stroke-linejoin: round; transform-origin: 345.25px 296.84px;" id="el7tl9th2z9q" class="animable"></rect><rect x="395.07" y="367" width="17.5" height="5" style="fill: rgb(133, 202, 255); stroke: rgb(38, 50, 56); stroke-linecap: round; stroke-linejoin: round; transform-origin: 403.82px 369.5px;" id="el8jw3vf5ony" class="animable"></rect><rect x="284.4" y="367" width="17.5" height="5" style="fill: rgb(133, 202, 255); stroke: rgb(38, 50, 56); stroke-linecap: round; stroke-linejoin: round; transform-origin: 293.15px 369.5px;" id="eli09eov9zdcl" class="animable"></rect></g><g id="freepik--house-1--inject-105" class="animable" style="transform-origin: 145.76px 321.395px;"><rect x="77.95" y="287" width="135.61" height="100" style="fill: rgb(255, 255, 255); stroke: rgb(38, 50, 56); stroke-linecap: round; stroke-linejoin: round; transform-origin: 145.755px 337px;" id="el7829uqjwbne" class="animable"></rect><polygon points="224.98 289.82 66.53 289.82 78.37 294.13 213.13 294.13 224.98 289.82" style="fill: rgb(133, 202, 255); stroke: rgb(38, 50, 56); stroke-linecap: round; stroke-linejoin: round; transform-origin: 145.755px 291.975px;" id="el2l1iq80haa6" class="animable"></polygon><path d="M225,289.83H66.52l10.83-15.56a3.43,3.43,0,0,1,2.81-1.47H211.34a3.44,3.44,0,0,1,2.82,1.47Z" style="fill: rgb(38, 50, 56); stroke: rgb(38, 50, 56); stroke-linecap: round; stroke-linejoin: round; transform-origin: 145.76px 281.315px;" id="elwuspa9i7gd8" class="animable"></path><rect x="80.23" y="260.54" width="11.26" height="15.09" style="fill: rgb(255, 255, 255); stroke: rgb(38, 50, 56); stroke-linecap: round; stroke-linejoin: round; transform-origin: 85.86px 268.085px;" id="eljvplgu97hcf" class="animable"></rect><rect x="88.53" y="260.54" width="2.96" height="15.09" style="fill: rgb(255, 255, 255); stroke: rgb(38, 50, 56); stroke-linecap: round; stroke-linejoin: round; transform-origin: 90.01px 268.085px;" id="elg4zr2kfaa5m" class="animable"></rect><rect x="78.37" y="255.79" width="14.98" height="7.76" style="fill: rgb(255, 255, 255); stroke: rgb(38, 50, 56); stroke-linecap: round; stroke-linejoin: round; transform-origin: 85.86px 259.67px;" id="el4jwnynwdmub" class="animable"></rect><rect x="88.17" y="255.79" width="5.18" height="7.76" style="fill: rgb(255, 255, 255); stroke: rgb(38, 50, 56); stroke-linecap: round; stroke-linejoin: round; transform-origin: 90.76px 259.67px;" id="elkpcsuwv7th" class="animable"></rect><rect x="94.32" y="294.71" width="18.5" height="28.79" style="fill: rgb(255, 255, 255); stroke: rgb(38, 50, 56); stroke-linecap: round; stroke-linejoin: round; transform-origin: 103.57px 309.105px;" id="el6sjo5v28xj" class="animable"></rect><rect x="96.32" y="296.5" width="14.5" height="25.57" style="fill: rgb(38, 50, 56); stroke: rgb(255, 255, 255); stroke-linecap: round; stroke-linejoin: round; transform-origin: 103.57px 309.285px;" id="eli8rn8rm61m" class="animable"></rect><rect x="96.32" y="296.5" width="14.5" height="14" style="fill: rgb(38, 50, 56); stroke: rgb(255, 255, 255); stroke-linecap: round; stroke-linejoin: round; transform-origin: 103.57px 303.5px;" id="elosq0bhhwy7e" class="animable"></rect><rect x="100.32" y="296.5" width="6.5" height="14" style="fill: rgb(38, 50, 56); stroke: rgb(255, 255, 255); stroke-linecap: round; stroke-linejoin: round; transform-origin: 103.57px 303.5px;" id="el7m9zq42os9u" class="animable"></rect><rect x="91.32" y="350.21" width="24.5" height="28.79" style="fill: rgb(255, 255, 255); stroke: rgb(38, 50, 56); stroke-linecap: round; stroke-linejoin: round; transform-origin: 103.57px 364.605px;" id="elrlbw9j9ub4" class="animable"></rect><rect x="93.97" y="352" width="19.2" height="25.57" style="fill: rgb(38, 50, 56); stroke: rgb(255, 255, 255); stroke-linecap: round; stroke-linejoin: round; transform-origin: 103.57px 364.785px;" id="el3uat88e8ai9" class="animable"></rect><rect x="93.97" y="352" width="19.2" height="14" style="fill: rgb(38, 50, 56); stroke: rgb(255, 255, 255); stroke-linecap: round; stroke-linejoin: round; transform-origin: 103.57px 359px;" id="el2hz02r3xdli" class="animable"></rect><rect x="99.27" y="352" width="8.61" height="14" style="fill: rgb(38, 50, 56); stroke: rgb(255, 255, 255); stroke-linecap: round; stroke-linejoin: round; transform-origin: 103.575px 359px;" id="elvxo0a70hk2h" class="animable"></rect><rect x="175.32" y="350.21" width="24.5" height="28.79" style="fill: rgb(255, 255, 255); stroke: rgb(38, 50, 56); stroke-linecap: round; stroke-linejoin: round; transform-origin: 187.57px 364.605px;" id="elc7gchnxw69e" class="animable"></rect><rect x="177.97" y="352" width="19.2" height="25.57" style="fill: rgb(38, 50, 56); stroke: rgb(255, 255, 255); stroke-linecap: round; stroke-linejoin: round; transform-origin: 187.57px 364.785px;" id="elkoa561vvwu" class="animable"></rect><rect x="177.97" y="352" width="19.2" height="14" style="fill: rgb(38, 50, 56); stroke: rgb(255, 255, 255); stroke-linecap: round; stroke-linejoin: round; transform-origin: 187.57px 359px;" id="elukymxhc0qz" class="animable"></rect><rect x="183.27" y="352" width="8.61" height="14" style="fill: rgb(38, 50, 56); stroke: rgb(255, 255, 255); stroke-linecap: round; stroke-linejoin: round; transform-origin: 187.575px 359px;" id="el30o0ikptjfd" class="animable"></rect><rect x="179.32" y="294.71" width="18.5" height="28.79" style="fill: rgb(255, 255, 255); stroke: rgb(38, 50, 56); stroke-linecap: round; stroke-linejoin: round; transform-origin: 188.57px 309.105px;" id="el8pe22work8" class="animable"></rect><rect x="181.32" y="296.5" width="14.5" height="25.57" style="fill: rgb(38, 50, 56); stroke: rgb(255, 255, 255); stroke-linecap: round; stroke-linejoin: round; transform-origin: 188.57px 309.285px;" id="elcmi7upfoqzk" class="animable"></rect><rect x="181.32" y="296.5" width="14.5" height="14" style="fill: rgb(38, 50, 56); stroke: rgb(255, 255, 255); stroke-linecap: round; stroke-linejoin: round; transform-origin: 188.57px 303.5px;" id="elw8ivvex1pdq" class="animable"></rect><rect x="185.32" y="296.5" width="6.5" height="14" style="fill: rgb(38, 50, 56); stroke: rgb(255, 255, 255); stroke-linecap: round; stroke-linejoin: round; transform-origin: 188.57px 303.5px;" id="elqix38dm5u1a" class="animable"></rect><rect x="138.33" y="299" width="12.99" height="20.21" style="fill: rgb(255, 255, 255); stroke: rgb(38, 50, 56); stroke-linecap: round; stroke-linejoin: round; transform-origin: 144.825px 309.105px;" id="el8r3nh1wtc64" class="animable"></rect><rect x="139.73" y="300.26" width="10.17" height="17.52" style="fill: rgb(38, 50, 56); stroke: rgb(255, 255, 255); stroke-linecap: round; stroke-linejoin: round; transform-origin: 144.815px 309.02px;" id="elmscud41jzae" class="animable"></rect><rect x="139.73" y="300.26" width="10.17" height="9.82" style="fill: rgb(38, 50, 56); stroke: rgb(255, 255, 255); stroke-linecap: round; stroke-linejoin: round; transform-origin: 144.815px 305.17px;" id="elpl0tx243ya" class="animable"></rect><rect x="142.54" y="300.26" width="4.56" height="9.82" style="fill: rgb(38, 50, 56); stroke: rgb(255, 255, 255); stroke-linecap: round; stroke-linejoin: round; transform-origin: 144.82px 305.17px;" id="eli0qq7c4lho" class="animable"></rect><rect x="128.18" y="342" width="35.14" height="35.5" style="fill: rgb(133, 202, 255); stroke: rgb(38, 50, 56); stroke-linecap: round; stroke-linejoin: round; transform-origin: 145.75px 359.75px;" id="eldlu8vo5aav" class="animable"></rect><rect x="132.18" y="347" width="27.14" height="30.5" style="fill: rgb(38, 50, 56); stroke: rgb(38, 50, 56); stroke-linecap: round; stroke-linejoin: round; transform-origin: 145.75px 362.25px;" id="el6bu3e83s9fu" class="animable"></rect><rect x="137.18" y="347" width="3.64" height="30.5" style="fill: rgb(255, 255, 255); stroke: rgb(38, 50, 56); stroke-linecap: round; stroke-linejoin: round; transform-origin: 139px 362.25px;" id="eljhe8t06lc3" class="animable"></rect><rect x="149.18" y="347" width="3.64" height="30.5" style="fill: rgb(255, 255, 255); stroke: rgb(38, 50, 56); stroke-linecap: round; stroke-linejoin: round; transform-origin: 151px 362.25px;" id="elvg43jbqntv" class="animable"></rect><path d="M133.82,340.16H129.6l16.15-14,16.16,14h-4.09v2.33H170L146.33,322a.88.88,0,0,0-1.16,0l-23.66,20.49h12.31Z" style="fill: rgb(133, 202, 255); stroke: rgb(38, 50, 56); stroke-linecap: round; stroke-linejoin: round; transform-origin: 145.755px 332.136px;" id="el2c1boyozoih" class="animable"></path><rect x="128.18" y="377.5" width="35.31" height="3.11" style="fill: rgb(133, 202, 255); stroke: rgb(38, 50, 56); stroke-linecap: round; stroke-linejoin: round; transform-origin: 145.835px 379.055px;" id="eleq5t2z7tcur" class="animable"></rect><rect x="128.18" y="380.52" width="35.31" height="3.11" style="fill: rgb(133, 202, 255); stroke: rgb(38, 50, 56); stroke-linecap: round; stroke-linejoin: round; transform-origin: 145.835px 382.075px;" id="elysz6fa6xjdp" class="animable"></rect><rect x="128.18" y="383.54" width="35.31" height="3.11" style="fill: rgb(133, 202, 255); stroke: rgb(38, 50, 56); stroke-linecap: round; stroke-linejoin: round; transform-origin: 145.835px 385.095px;" id="elobprwdjif3" class="animable"></rect><line x1="132.18" y1="347" x2="128.65" y2="347" style="fill: none; stroke: rgb(38, 50, 56); stroke-linecap: round; stroke-linejoin: round; transform-origin: 130.415px 347px;" id="elmyujf6be3pq" class="animable"></line><line x1="163.18" y1="347" x2="159.65" y2="347" style="fill: none; stroke: rgb(38, 50, 56); stroke-linecap: round; stroke-linejoin: round; transform-origin: 161.415px 347px;" id="elonkai3l71en" class="animable"></line></g><g id="freepik--Trees--inject-105" class="animable animator-active" style="transform-origin: 250.813px 344.61px;"><path d="M251.32,368.35s9.41.93,14.18,6.76a18.21,18.21,0,0,1,14.09-6.62,18.29,18.29,0,1,0-28.28-.13Z" style="fill: rgb(133, 202, 255); transform-origin: 265.503px 356.822px;" id="elqn18l419jhg" class="animable"></path><g id="elx6zgjihw5oh"><path d="M251.32,368.35s9.41.93,14.18,6.76a18.21,18.21,0,0,1,14.09-6.62,18.29,18.29,0,1,0-28.28-.13Z" style="fill: rgb(255, 255, 255); opacity: 0.5; transform-origin: 265.503px 356.822px;" class="animable"></path></g><polygon points="265.19 339.81 264.87 387 266.46 387 265.19 339.81" style="fill: rgb(38, 50, 56); transform-origin: 265.665px 363.405px;" id="elr6rn7eattt" class="animable"></polygon><path d="M265.66,373.34s3.18-5.72,8.9-7.47c0,0-6,1.43-9.05,6.35Z" style="fill: rgb(38, 50, 56); transform-origin: 270.035px 369.605px;" id="eleagfga7q6w" class="animable"></path><path d="M265.66,357.13s3.18-5.72,8.9-7.47c0,0-6,1.43-9.05,6.36Z" style="fill: rgb(38, 50, 56); transform-origin: 270.035px 353.395px;" id="eli0upvjfvni" class="animable"></path><path d="M265.66,365.23s3.18-5.72,8.9-7.46c0,0-6,1.43-9.05,6.35Z" style="fill: rgb(38, 50, 56); transform-origin: 270.035px 361.5px;" id="elereww69doy6" class="animable"></path><path d="M265.19,361.26s-3.06-5.72-8.58-7.47c0,0,5.82,1.43,8.74,6.36Z" style="fill: rgb(38, 50, 56); transform-origin: 260.98px 357.525px;" id="el5h98ao1qq0t" class="animable"></path><path d="M265.19,369.2s-3.06-5.71-8.58-7.46c0,0,5.82,1.43,8.74,6.35Z" style="fill: rgb(38, 50, 56); transform-origin: 260.98px 365.47px;" id="el8bgyu53tipk" class="animable"></path><path d="M425.62,368.35s9.41.93,14.19,6.76a18.21,18.21,0,0,1,14.09-6.62,18.29,18.29,0,1,0-28.28-.13Z" style="fill: rgb(133, 202, 255); transform-origin: 439.813px 356.822px;" id="el3lf3z9uvwy7" class="animable"></path><g id="elo03fdmxzgno"><path d="M425.62,368.35s9.41.93,14.19,6.76a18.21,18.21,0,0,1,14.09-6.62,18.29,18.29,0,1,0-28.28-.13Z" style="fill: rgb(255, 255, 255); opacity: 0.5; transform-origin: 439.813px 356.822px;" class="animable"></path></g><polygon points="439.49 339.81 439.18 387 440.76 387 439.49 339.81" style="fill: rgb(38, 50, 56); transform-origin: 439.97px 363.405px;" id="elh4wzit9d3yc" class="animable"></polygon><path d="M440,373.34s3.18-5.72,8.9-7.47c0,0-6,1.43-9.06,6.35Z" style="fill: rgb(38, 50, 56); transform-origin: 444.37px 369.605px;" id="elboewmqhh27i" class="animable"></path><path d="M440,357.13s3.18-5.72,8.9-7.47c0,0-6,1.43-9.06,6.36Z" style="fill: rgb(38, 50, 56); transform-origin: 444.37px 353.395px;" id="ela834x4o6zr9" class="animable"></path><path d="M440,365.23s3.18-5.72,8.9-7.46c0,0-6,1.43-9.06,6.35Z" style="fill: rgb(38, 50, 56); transform-origin: 444.37px 361.5px;" id="elyu1d8wkg9l" class="animable"></path><path d="M439.5,361.26s-3.07-5.72-8.59-7.47c0,0,5.83,1.43,8.74,6.36Z" style="fill: rgb(38, 50, 56); transform-origin: 435.28px 357.525px;" id="ellgbw61wncji" class="animable"></path><path d="M439.5,369.2s-3.07-5.71-8.59-7.46c0,0,5.83,1.43,8.74,6.35Z" style="fill: rgb(38, 50, 56); transform-origin: 435.28px 365.47px;" id="elcabosw7cm5" class="animable"></path><path d="M47.62,368.35s9.41.93,14.19,6.76a18.21,18.21,0,0,1,14.09-6.62,18.29,18.29,0,1,0-28.28-.13Z" style="fill: rgb(133, 202, 255); transform-origin: 61.8133px 356.822px;" id="eltkehafx3ncf" class="animable"></path><g id="elchicmu9wd1n"><path d="M47.62,368.35s9.41.93,14.19,6.76a18.21,18.21,0,0,1,14.09-6.62,18.29,18.29,0,1,0-28.28-.13Z" style="fill: rgb(255, 255, 255); opacity: 0.5; transform-origin: 61.8133px 356.822px;" class="animable"></path></g><polygon points="61.49 339.81 61.18 387 62.77 387 61.49 339.81" style="fill: rgb(38, 50, 56); transform-origin: 61.975px 363.405px;" id="elyut2hhdtp" class="animable"></polygon><path d="M62,373.34s3.18-5.72,8.9-7.47c0,0-6,1.43-9.06,6.35Z" style="fill: rgb(38, 50, 56); transform-origin: 66.37px 369.605px;" id="el74rkufq0ta3" class="animable"></path><path d="M62,357.13s3.18-5.72,8.9-7.47c0,0-6,1.43-9.06,6.36Z" style="fill: rgb(38, 50, 56); transform-origin: 66.37px 353.395px;" id="elldrfnm9kgpl" class="animable"></path><path d="M62,365.23s3.18-5.72,8.9-7.46c0,0-6,1.43-9.06,6.35Z" style="fill: rgb(38, 50, 56); transform-origin: 66.37px 361.5px;" id="elh68c1s9pomq" class="animable"></path><path d="M61.5,361.26s-3.07-5.72-8.59-7.47c0,0,5.83,1.43,8.74,6.36Z" style="fill: rgb(38, 50, 56); transform-origin: 57.28px 357.525px;" id="eljloy7pbsuc" class="animable"></path><path d="M61.5,369.2s-3.07-5.71-8.59-7.46c0,0,5.83,1.43,8.74,6.35Z" style="fill: rgb(38, 50, 56); transform-origin: 57.28px 365.47px;" id="elzjzce9qzot" class="animable"></path><path d="M200.75,354.42s16.44,1.63,24.77,11.82c0,0,8.8-11.8,24.62-11.56a32,32,0,1,0-49.4-.23Z" style="fill: rgb(133, 202, 255); transform-origin: 225.535px 334.23px;" id="elb8xgc9f7idl" class="animable"></path><g id="elavv9syaydnc"><path d="M200.75,354.42s16.44,1.63,24.77,11.82c0,0,8.8-11.8,24.62-11.56a32,32,0,1,0-49.4-.23Z" style="fill: rgb(255, 255, 255); opacity: 0.3; transform-origin: 225.535px 334.23px;" class="animable"></path></g><polygon points="224.98 304.59 224.42 387 227.2 387 224.98 304.59" style="fill: rgb(38, 50, 56); transform-origin: 225.81px 345.795px;" id="el098lb1uixxaw" class="animable"></polygon><path d="M225.81,363.14s5.55-10,15.54-13.05c0,0-10.55,2.5-15.82,11.1Z" style="fill: rgb(38, 50, 56); transform-origin: 233.44px 356.615px;" id="el4c9valznyne" class="animable"></path><path d="M225.81,334.83s5.55-10,15.54-13c0,0-10.55,2.5-15.82,11.1Z" style="fill: rgb(38, 50, 56); transform-origin: 233.44px 328.33px;" id="ela2tsfa5feim" class="animable"></path><path d="M225.81,349s5.55-10,15.54-13c0,0-10.55,2.5-15.82,11.1Z" style="fill: rgb(38, 50, 56); transform-origin: 233.44px 342.5px;" id="elcu5gjid6g5b" class="animable"></path><path d="M225,342.05s-5.36-10-15-13c0,0,10.18,2.49,15.26,11.09Z" style="fill: rgb(38, 50, 56); transform-origin: 217.63px 335.55px;" id="el65tm35eqpi" class="animable"></path><path d="M225,355.92s-5.36-10-15-13c0,0,10.18,2.5,15.26,11.1Z" style="fill: rgb(38, 50, 56); transform-origin: 217.63px 349.42px;" id="elfar72rtfkv" class="animable"></path></g><g id="freepik--Floor--inject-105" class="animable" style="transform-origin: 249.315px 388.33px;"><rect x="45.65" y="386.33" width="407.33" height="4" style="fill: rgb(38, 50, 56); stroke: rgb(38, 50, 56); stroke-linecap: round; stroke-linejoin: round; transform-origin: 249.315px 388.33px;" id="el7j3tdf825nx" class="animable"></rect></g><g id="freepik--Clouds--inject-105" class="animable" style="transform-origin: 183.625px 175.54px;"><path d="M238.91,240.19c-3.3-1.81-4.8-.3-6-1.81s3.31-5.41-5.71-9.31c0,0-.6-8.42-12.92-8.72s-9,8.42-12.32,10.52-4.21-1.2-7.51.9-1.81,6.31-4.51,6.91-6.31-2.7-9.62-.6S177,242,175.5,242s-4.5-1.2-6.31,0-3.9,2.7-3.9,2.7h76S242.22,242,238.91,240.19Z" style="fill: rgb(255, 255, 255); transform-origin: 203.35px 232.521px;" id="elpiigsu2hrhe" class="animable"></path><path d="M207.1,228.46c-2.4-1.32-3.5-.22-4.37-1.32s2.4-3.94-4.16-6.78c0,0-.44-6.13-9.42-6.35s-6.56,6.13-9,7.66-3.07-.87-5.48.66-1.31,4.6-3.28,5-4.6-2-7-.43-2.4,2.84-3.5,2.84-3.28-.87-4.6,0-2.84,2-2.84,2h55.39S209.51,229.77,207.1,228.46Z" style="fill: rgb(255, 255, 255); transform-origin: 181.188px 222.872px;" id="el1gdsh7s25nc" class="animable"></path><path d="M226.1,133.4c-4.5-2.45-6.55-.41-8.18-2.45s4.5-7.37-7.78-12.69c0,0-.82-11.46-17.6-11.87s-12.27,11.46-16.78,14.33-5.72-1.64-10.23,1.22-2.45,8.6-6.13,9.42-8.6-3.69-13.1-.82-4.5,5.32-6.55,5.32-6.14-1.64-8.59,0-5.32,3.68-5.32,3.68H229.37S230.6,135.86,226.1,133.4Z" style="fill: rgb(133, 202, 255); transform-origin: 177.682px 122.96px;" id="el0bm7q8uay12e" class="animable"></path><g id="elzcn993x3hn"><path d="M226.1,133.4c-4.5-2.45-6.55-.41-8.18-2.45s4.5-7.37-7.78-12.69c0,0-.82-11.46-17.6-11.87s-12.27,11.46-16.78,14.33-5.72-1.64-10.23,1.22-2.45,8.6-6.13,9.42-8.6-3.69-13.1-.82-4.5,5.32-6.55,5.32-6.14-1.64-8.59,0-5.32,3.68-5.32,3.68H229.37S230.6,135.86,226.1,133.4Z" style="fill: rgb(255, 255, 255); opacity: 0.8; transform-origin: 177.682px 122.96px;" class="animable"></path></g></g><defs>     <filter id="active" height="200%">         <feMorphology in="SourceAlpha" result="DILATED" operator="dilate" radius="2"></feMorphology>                <feFlood flood-color="#32DFEC" flood-opacity="1" result="PINK"></feFlood>        <feComposite in="PINK" in2="DILATED" operator="in" result="OUTLINE"></feComposite>        <feMerge>            <feMergeNode in="OUTLINE"></feMergeNode>            <feMergeNode in="SourceGraphic"></feMergeNode>        </feMerge>    </filter>    <filter id="hover" height="200%">        <feMorphology in="SourceAlpha" result="DILATED" operator="dilate" radius="2"></feMorphology>                <feFlood flood-color="#ff0000" flood-opacity="0.5" result="PINK"></feFlood>        <feComposite in="PINK" in2="DILATED" operator="in" result="OUTLINE"></feComposite>        <feMerge>            <feMergeNode in="OUTLINE"></feMergeNode>            <feMergeNode in="SourceGraphic"></feMergeNode>        </feMerge>            <feColorMatrix type="matrix" values="0   0   0   0   0                0   1   0   0   0                0   0   0   0   0                0   0   0   1   0 "></feColorMatrix>    </filter></defs></svg>